<svg width="167" height="75" viewBox="0 0 167 75" fill="none" xmlns="http://www.w3.org/2000/svg">
<path d="M10 18.999H14.4728V40.2736H10V18.999Z" fill="#F8F8F8"/>
<path d="M32.5872 32.6182C32.5872 32.6755 32.5585 33.0769 32.5012 33.8224H20.8317C21.042 34.7781 21.5389 35.5332 22.3226 36.0875C23.1063 36.6418 24.0812 36.919 25.2472 36.919C26.05 36.919 26.7572 36.8043 27.3689 36.5749C27.9997 36.3264 28.5827 35.9441 29.1179 35.428L31.4977 38.0085C30.0449 39.6715 27.9232 40.503 25.1325 40.503C23.3931 40.503 21.8543 40.1685 20.5163 39.4994C19.1783 38.8113 18.1461 37.8651 17.4198 36.6609C16.6934 35.4567 16.3302 34.09 16.3302 32.5608C16.3302 31.0508 16.6838 29.6936 17.3911 28.4894C18.1174 27.2661 19.1018 26.3199 20.3443 25.6509C21.6059 24.9628 23.0108 24.6187 24.5591 24.6187C26.0691 24.6187 27.4358 24.9437 28.6591 25.5936C29.8825 26.2435 30.8382 27.1801 31.5263 28.4034C32.2336 29.6076 32.5872 31.0126 32.5872 32.6182ZM24.5877 28.002C23.5747 28.002 22.7241 28.2887 22.0359 28.8622C21.3478 29.4356 20.9273 30.2193 20.7744 31.2133H28.3724C28.2195 30.2384 27.799 29.4643 27.1109 28.8908C26.4227 28.2983 25.5817 28.002 24.5877 28.002Z" fill="#F8F8F8"/>
<path d="M44.3673 39.5281C43.9277 39.8531 43.3829 40.1016 42.733 40.2736C42.1022 40.4265 41.4332 40.503 40.726 40.503C38.891 40.503 37.4669 40.0346 36.4539 39.098C35.4599 38.1614 34.9629 36.7852 34.9629 34.9693V28.6328H32.5832V25.1922H34.9629V21.4361H39.4357V25.1922H43.2778V28.6328H39.4357V34.9119C39.4357 35.5618 39.5982 36.0684 39.9232 36.4315C40.2672 36.7756 40.7451 36.9476 41.3568 36.9476C42.064 36.9476 42.6661 36.7565 43.1631 36.3742L44.3673 39.5281Z" fill="#F8F8F8"/>
<path d="M65.4862 24.6187C67.4168 24.6187 68.9459 25.1922 70.0737 26.339C71.2206 27.4668 71.794 29.168 71.794 31.4426V40.2736H67.3212V32.1308C67.3212 30.9074 67.0631 29.9995 66.5471 29.4069C66.0501 28.7953 65.3333 28.4894 64.3967 28.4894C63.3454 28.4894 62.5139 28.8335 61.9022 29.5216C61.2905 30.1906 60.9847 31.1941 60.9847 32.5322V40.2736H56.5119V32.1308C56.5119 29.7032 55.537 28.4894 53.5873 28.4894C52.5552 28.4894 51.7332 28.8335 51.1216 29.5216C50.5099 30.1906 50.2041 31.1941 50.2041 32.5322V40.2736H45.7312V24.8481H50.0034V26.6258C50.5768 25.9759 51.2745 25.4789 52.0964 25.1348C52.9375 24.7908 53.855 24.6187 54.8489 24.6187C55.9384 24.6187 56.9228 24.8385 57.8021 25.2782C58.6814 25.6987 59.3886 26.3199 59.9238 27.1418C60.5546 26.339 61.3479 25.7178 62.3036 25.2782C63.2785 24.8385 64.3393 24.6187 65.4862 24.6187Z" fill="#F8F8F8"/>
<path d="M89.9344 32.6182C89.9344 32.6755 89.9057 33.0769 89.8484 33.8224H78.1789C78.3891 34.7781 78.8861 35.5332 79.6698 36.0875C80.4535 36.6418 81.4284 36.919 82.5944 36.919C83.3972 36.919 84.1044 36.8043 84.7161 36.5749C85.3469 36.3264 85.9299 35.9441 86.4651 35.428L88.8448 38.0085C87.3921 39.6715 85.2704 40.503 82.4797 40.503C80.7402 40.503 79.2015 40.1685 77.8635 39.4994C76.5255 38.8113 75.4933 37.8651 74.7669 36.6609C74.0406 35.4567 73.6774 34.09 73.6774 32.5608C73.6774 31.0508 74.031 29.6936 74.7383 28.4894C75.4646 27.2661 76.449 26.3199 77.6915 25.6509C78.953 24.9628 80.358 24.6187 81.9062 24.6187C83.4163 24.6187 84.783 24.9437 86.0063 25.5936C87.2297 26.2435 88.1854 27.1801 88.8735 28.4034C89.5807 29.6076 89.9344 31.0126 89.9344 32.6182ZM81.9349 28.002C80.9218 28.002 80.0712 28.2887 79.3831 28.8622C78.695 29.4356 78.2745 30.2193 78.1215 31.2133H85.7196C85.5667 30.2384 85.1462 29.4643 84.458 28.8908C83.7699 28.2983 82.9289 28.002 81.9349 28.002Z" fill="#F8F8F8"/>
<path d="M116.086 24.8481L113.018 40.2736H108.775L109.061 38.754C107.781 39.92 106.204 40.503 104.331 40.503C103.126 40.503 102.018 40.2258 101.005 39.6715C99.9916 39.1171 99.1792 38.3239 98.5675 37.2917C97.975 36.2404 97.6787 35.0075 97.6787 33.593C97.6787 31.8918 98.0514 30.3627 98.7969 29.0055C99.5615 27.6293 100.594 26.5589 101.893 25.7943C103.193 25.0106 104.627 24.6187 106.194 24.6187C108.564 24.6187 110.237 25.3929 111.212 26.9411L111.613 24.8481H116.086ZM105.707 36.8043C106.586 36.8043 107.37 36.594 108.058 36.1735C108.746 35.7339 109.281 35.1318 109.664 34.3672C110.046 33.6026 110.237 32.7233 110.237 31.7294C110.237 30.678 109.922 29.8466 109.291 29.2349C108.679 28.6232 107.819 28.3174 106.71 28.3174C105.831 28.3174 105.047 28.5372 104.359 28.9768C103.671 29.3974 103.136 29.9899 102.754 30.7545C102.371 31.5191 102.18 32.3984 102.18 33.3923C102.18 34.4436 102.486 35.2751 103.098 35.8868C103.728 36.4984 104.598 36.8043 105.707 36.8043Z" fill="url(#paint0_linear)"/>
<path d="M121.632 40.503C120.294 40.503 119.023 40.3596 117.819 40.0729C116.634 39.767 115.707 39.3752 115.038 38.8973L116.758 35.6574C117.427 36.097 118.239 36.4507 119.195 36.7183C120.17 36.9859 121.145 37.1197 122.119 37.1197C123.133 37.1197 123.888 36.9954 124.385 36.7469C124.882 36.4793 125.13 36.1066 125.13 35.6287C125.13 35.2464 124.91 34.9693 124.471 34.7972C124.031 34.6252 123.324 34.4436 122.349 34.2525C121.24 34.0422 120.323 33.8128 119.596 33.5644C118.889 33.3159 118.268 32.9145 117.733 32.3601C117.217 31.7867 116.959 31.0126 116.959 30.0377C116.959 28.3365 117.666 27.008 119.08 26.0523C120.514 25.0966 122.387 24.6187 124.7 24.6187C125.77 24.6187 126.812 24.7334 127.825 24.9628C128.838 25.1922 129.698 25.5075 130.406 25.909L128.8 29.1776C127.538 28.3939 126.019 28.002 124.241 28.002C123.266 28.002 122.521 28.1454 122.005 28.4321C121.508 28.7188 121.259 29.082 121.259 29.5216C121.259 29.923 121.479 30.2193 121.919 30.4104C122.358 30.5825 123.094 30.7736 124.127 30.9839C125.216 31.1941 126.105 31.4235 126.793 31.672C127.5 31.9014 128.112 32.2932 128.628 32.8476C129.144 33.4019 129.402 34.1569 129.402 35.1126C129.402 36.833 128.676 38.1614 127.223 39.098C125.79 40.0346 123.926 40.503 121.632 40.503Z" fill="url(#paint1_linear)"/>
<path d="M141.595 31.5573L146.899 40.2736H141.71L138.04 34.2812L135.316 36.5462L134.57 40.2736H130.097L134.341 18.999H138.814L136.434 30.8979L143.831 24.8481H149.652L141.595 31.5573Z" fill="url(#paint2_linear)"/>
<path d="M91.0845 15.9024V8.73438C91.0845 5.56737 93.6518 3 96.8189 3H158.463C161.63 3 164.198 5.56737 164.198 8.73438V48.8751C164.198 52.0421 161.63 54.6094 158.463 54.6094H148.428L151.782 70.2603C152.075 71.6282 150.436 72.563 149.408 71.6141L134.092 57.4766H96.8189C93.6518 57.4766 91.0845 54.9093 91.0845 51.7422V48.8751" stroke="url(#paint3_linear)" stroke-width="4.30079"/>
<defs>
<linearGradient id="paint0_linear" x1="97.6787" y1="18.999" x2="109.758" y2="53.1106" gradientUnits="userSpaceOnUse">
<stop stop-color="#485BFF"/>
<stop offset="1" stop-color="#FF59F8"/>
</linearGradient>
<linearGradient id="paint1_linear" x1="97.6787" y1="18.999" x2="109.758" y2="53.1106" gradientUnits="userSpaceOnUse">
<stop stop-color="#485BFF"/>
<stop offset="1" stop-color="#FF59F8"/>
</linearGradient>
<linearGradient id="paint2_linear" x1="97.6787" y1="18.999" x2="109.758" y2="53.1106" gradientUnits="userSpaceOnUse">
<stop stop-color="#485BFF"/>
<stop offset="1" stop-color="#FF59F8"/>
</linearGradient>
<linearGradient id="paint3_linear" x1="91.0845" y1="3" x2="151.295" y2="77.547" gradientUnits="userSpaceOnUse">
<stop stop-color="#485BFF"/>
<stop offset="1" stop-color="#FF59F8"/>
</linearGradient>
</defs>
</svg>
